{
  "source": "C:\\Users\\Peter\\Desktop\\stuff\\MIUN\\quantitative_research\\video_compression\\videos\\BVI-HD\\PlasmaSlowRandom_1920x1080_60fps.mp4",
  "output": "C:\\Users\\Peter\\Desktop\\stuff\\MIUN\\quantitative_research\\video_compression\\compressed_videos\\BVI-HD\\vp9\\12\\PlasmaSlowRandom_1920x1080_60fps_vp9.webm",
  "codec": "vp9",
  "ok": "Input #0, mov,mp4,m4a,3gp,3g2,mj2, from 'C:\\Users\\Peter\\Desktop\\stuff\\MIUN\\quantitative_research\\video_compression\\videos\\BVI-HD\\PlasmaSlowRandom_1920x1080_60fps.mp4':\n  Metadata:\n    major_brand     : isom\n    minor_version   : 512\n    compatible_brands: isomiso2avc1mp41\n    encoder         : Lavf54.28.101\n  Duration: 00:00:05.00, start: 0.000000, bitrate: 23030 kb/s\n  Stream #0:0[0x1](und): Video: h264 (High 4:4:4 Predictive) (avc1 / 0x31637661), yuv420p(progressive), 1920x1080, 23026 kb/s, 60 fps, 60 tbr, 60 tbn (default)\n    Metadata:\n      handler_name    : VideoHandler\n      vendor_id       : [0][0][0][0]\n[out#0/webm @ 0000018868d39580] Codec AVOption b:a (set bitrate (in bits/s)) has not been used for any stream. The most likely reason is either wrong type (e.g. a video option with no video streams) or that it is a private option of some decoder which was not actually used for any stream.\nStream mapping:\n  Stream #0:0 -> #0:0 (h264 (native) -> vp9 (libvpx-vp9))\nPress [q] to stop, [?] for help\n[libvpx-vp9 @ 00000188691f4580] v1.15.2-100-g40561f514\nOutput #0, webm, to 'C:\\Users\\Peter\\Desktop\\stuff\\MIUN\\quantitative_research\\video_compression\\compressed_videos\\BVI-HD\\vp9\\12\\PlasmaSlowRandom_1920x1080_60fps_vp9.webm':\n  Metadata:\n    major_brand     : isom\n    minor_version   : 512\n    compatible_brands: isomiso2avc1mp41\n    encoder         : Lavf62.3.100\n  Stream #0:0(und): Video: vp9, yuv420p(tv, progressive), 1920x1080, q=2-31, 12000 kb/s, 60 fps, 1k tbn (default)\n    Metadata:\n      encoder         : Lavc62.11.100 libvpx-vp9\n      handler_name    : VideoHandler\n      vendor_id       : [0][0][0][0]\n    Side data:\n      cpb: bitrate max/min/avg: 0/0/0 buffer size: 12000000 vbv_delay: N/A\nframe=    0 fps=0.0 q=0.0 size=       0KiB time=N/A bitrate=N/A speed=N/A elapsed=0:00:00.52    \nframe=    7 fps=6.5 q=20.0 size=       1KiB time=00:00:00.11 bitrate=  43.4kbits/s speed=0.109x elapsed=0:00:01.07    \nframe=   14 fps=8.7 q=11.0 size=       1KiB time=00:00:00.23 bitrate=  21.7kbits/s speed=0.144x elapsed=0:00:01.61    \nframe=   19 fps=8.8 q=7.0 size=       1KiB time=00:00:00.31 bitrate=  16.0kbits/s speed=0.146x elapsed=0:00:02.17    \nframe=   24 fps=8.9 q=4.0 size=       1KiB time=00:00:00.40 bitrate=  12.7kbits/s speed=0.148x elapsed=0:00:02.70    \nframe=   31 fps=9.5 q=3.0 size=       1KiB time=00:00:00.51 bitrate=   9.8kbits/s speed=0.158x elapsed=0:00:03.25    \nframe=   39 fps= 10 q=3.0 size=       1KiB time=00:00:00.65 bitrate=   7.8kbits/s speed=0.172x elapsed=0:00:03.77    \nframe=   47 fps= 11 q=4.0 size=       1KiB time=00:00:00.78 bitrate=   6.5kbits/s speed=0.182x elapsed=0:00:04.30    \nframe=   53 fps= 11 q=2.0 size=       1KiB time=00:00:00.86 bitrate=   5.8kbits/s speed=0.18x elapsed=0:00:04.82    \nframe=   58 fps= 11 q=4.0 size=       1KiB time=00:00:00.95 bitrate=   5.3kbits/s speed=0.178x elapsed=0:00:05.35    \nframe=   65 fps= 11 q=5.0 size=       1KiB time=00:00:01.08 bitrate=   4.7kbits/s speed=0.182x elapsed=0:00:05.94    \nframe=   72 fps= 11 q=5.0 size=       1KiB time=00:00:01.18 bitrate=   4.3kbits/s speed=0.182x elapsed=0:00:06.49    \nframe=   78 fps= 11 q=6.0 size=       1KiB time=00:00:01.30 bitrate=   3.9kbits/s speed=0.185x elapsed=0:00:07.04    \nframe=   87 fps= 11 q=6.0 size=       1KiB time=00:00:01.43 bitrate=   3.5kbits/s speed=0.189x elapsed=0:00:07.57    \nframe=   95 fps= 12 q=3.0 size=       1KiB time=00:00:01.56 bitrate=   3.2kbits/s speed=0.193x elapsed=0:00:08.12    \nframe=  101 fps= 12 q=2.0 size=       1KiB time=00:00:01.68 bitrate=   3.0kbits/s speed=0.192x elapsed=0:00:08.75    \nframe=  108 fps= 12 q=2.0 size=       1KiB time=00:00:01.78 bitrate=   2.8kbits/s speed=0.192x elapsed=0:00:09.27    \nframe=  116 fps= 12 q=6.0 size=       1KiB time=00:00:01.91 bitrate=   2.6kbits/s speed=0.195x elapsed=0:00:09.81    \nframe=  125 fps= 12 q=4.0 size=       1KiB time=00:00:02.08 bitrate=   2.4kbits/s speed=0.201x elapsed=0:00:10.35    \nframe=  129 fps= 12 q=0.0 size=       1KiB time=00:00:02.15 bitrate=   2.4kbits/s speed=0.197x elapsed=0:00:10.89    \nframe=  137 fps= 12 q=3.0 size=    1536KiB time=00:00:02.26 bitrate=5551.3kbits/s speed=0.198x elapsed=0:00:11.42    \nframe=  143 fps= 12 q=3.0 size=    1536KiB time=00:00:02.38 bitrate=5279.5kbits/s speed=0.199x elapsed=0:00:11.94    \nframe=  151 fps= 12 q=4.0 size=    1536KiB time=00:00:02.51 bitrate=4999.8kbits/s speed=0.202x elapsed=0:00:12.46    \nframe=  159 fps= 12 q=4.0 size=    1536KiB time=00:00:02.65 bitrate=4748.3kbits/s speed=0.204x elapsed=0:00:12.99    \nframe=  166 fps= 12 q=4.0 size=    1536KiB time=00:00:02.75 bitrate=4575.6kbits/s speed=0.204x elapsed=0:00:13.51    \nframe=  173 fps= 12 q=5.0 size=    1536KiB time=00:00:02.86 bitrate=4389.4kbits/s speed=0.204x elapsed=0:00:14.06    \nframe=  178 fps= 12 q=5.0 size=    1536KiB time=00:00:02.96 bitrate=4241.4kbits/s speed=0.203x elapsed=0:00:14.62    \nframe=  186 fps= 12 q=4.0 size=    1536KiB time=00:00:03.08 bitrate=4080.9kbits/s speed=0.203x elapsed=0:00:15.19    \nframe=  192 fps= 12 q=4.0 size=    1536KiB time=00:00:03.18 bitrate=3952.7kbits/s speed=0.201x elapsed=0:00:15.80    \nframe=  199 fps= 12 q=4.0 size=    1536KiB time=00:00:03.30 bitrate=3813.0kbits/s speed=0.201x elapsed=0:00:16.39    \nframe=  204 fps= 12 q=4.0 size=    1536KiB time=00:00:03.38 bitrate=3719.1kbits/s speed=0.198x elapsed=0:00:17.06    \nframe=  209 fps= 12 q=4.0 size=    1536KiB time=00:00:03.48 bitrate=3612.3kbits/s speed=0.197x elapsed=0:00:17.70    \nframe=  214 fps= 12 q=4.0 size=    1536KiB time=00:00:03.56 bitrate=3527.9kbits/s speed=0.195x elapsed=0:00:18.26    \nframe=  221 fps= 12 q=4.0 size=    1536KiB time=00:00:03.68 bitrate=3416.2kbits/s speed=0.196x elapsed=0:00:18.78    \nframe=  227 fps= 12 q=3.0 size=    1536KiB time=00:00:03.78 bitrate=3325.9kbits/s speed=0.196x elapsed=0:00:19.32    \nframe=  233 fps= 12 q=2.0 size=    1536KiB time=00:00:03.86 bitrate=3254.2kbits/s speed=0.195x elapsed=0:00:19.84    \nframe=  238 fps= 12 q=1.0 size=    1536KiB time=00:00:03.96 bitrate=3172.2kbits/s speed=0.194x elapsed=0:00:20.45    \nframe=  243 fps= 12 q=2.0 size=    1536KiB time=00:00:04.05 bitrate=3106.9kbits/s speed=0.193x elapsed=0:00:21.02    \nframe=  249 fps= 12 q=0.0 size=    1536KiB time=00:00:04.13 bitrate=3044.3kbits/s speed=0.192x elapsed=0:00:21.55    \nframe=  256 fps= 12 q=6.0 size=    1536KiB time=00:00:04.26 bitrate=2949.1kbits/s speed=0.193x elapsed=0:00:22.13    \nframe=  260 fps= 11 q=4.0 size=    3584KiB time=00:00:04.33 bitrate=6775.4kbits/s speed=0.191x elapsed=0:00:22.68    \nframe=  268 fps= 12 q=4.0 size=    3584KiB time=00:00:04.46 bitrate=6573.2kbits/s speed=0.193x elapsed=0:00:23.19    \nframe=  274 fps= 12 q=5.0 size=    3584KiB time=00:00:04.56 bitrate=6429.2kbits/s speed=0.192x elapsed=0:00:23.72    \nframe=  276 fps= 11 q=5.0 size=    3584KiB time=00:00:04.60 bitrate=6382.6kbits/s speed=0.189x elapsed=0:00:24.27    \nframe=  276 fps= 11 q=5.0 size=    3584KiB time=00:00:04.60 bitrate=6382.6kbits/s speed=0.185x elapsed=0:00:24.82    \nframe=  276 fps= 11 q=5.0 size=    3584KiB time=00:00:04.60 bitrate=6382.6kbits/s speed=0.182x elapsed=0:00:25.33    \n[out#0/webm @ 0000018868d39580] video:4247KiB audio:0KiB subtitle:0KiB other streams:0KiB global headers:0KiB muxing overhead: 0.065715%\nframe=  300 fps= 12 q=4.0 Lsize=    4250KiB time=00:00:05.00 bitrate=6963.1kbits/s speed=0.196x elapsed=0:00:25.50    \n",
  "seconds": 25.79399347305298,
  "probe_out": {}
}